<svg width="1440" height="1024" viewBox="0 0 1440 1024" fill="none" xmlns="http://www.w3.org/2000/svg">
<g id="Logo Assets" clip-path="url(#clip0_16_2)">
<rect width="1440" height="1024" fill="white"/>
<g id="piping-bag" clip-path="url(#clip1_16_2)">
<g id="Piping Bag">
<path id="Vector" d="M1130.97 665.762L1140.47 665.733C1141.83 665.76 1143.15 665.314 1144.22 664.474C1145.29 663.633 1146.03 662.449 1146.32 661.122L1153.56 623.841L1117.9 623.947L1125.09 661.151C1125.38 662.482 1126.13 663.67 1127.2 664.511C1128.27 665.352 1129.61 665.794 1130.97 665.762V665.762Z" fill="#ED588A"/>
<path id="Vector_2" d="M1153.56 621.233L1180.95 495.648C1181.43 493.44 1181.42 491.153 1180.92 488.949C1180.42 486.746 1179.44 484.679 1178.05 482.896L1153.04 450.616L1117.38 450.722L1093.25 483.724C1091.95 485.487 1091.05 487.506 1090.59 489.646C1090.14 491.786 1090.14 493.998 1090.61 496.136L1117.89 621.398L1153.56 621.233Z" fill="#ED588A"/>
<path id="Vector_3" d="M1153.04 448.008L1162.83 427.419C1163.39 426.212 1163.47 424.833 1163.04 423.572C1162.6 422.312 1161.7 421.268 1160.51 420.661L1137.51 408.716C1136.76 408.322 1135.93 408.117 1135.09 408.12C1134.25 408.122 1133.42 408.332 1132.68 408.73L1110.64 420.879C1109.52 421.484 1108.66 422.489 1108.24 423.696C1107.82 424.903 1107.86 426.224 1108.37 427.398L1117.34 448.115L1153.04 448.008Z" fill="#ED588A"/>
</g>
</g>
<g id="box">
<path id="Box" d="M567.48 635.574H892.907V774.331C892.907 778.211 891.363 781.932 888.615 784.675C885.867 787.419 882.14 788.96 878.253 788.96H586.145C581.202 788.96 576.461 787.002 572.961 783.517C569.462 780.031 567.491 775.302 567.48 770.367V635.574Z" fill="#ED588A"/>
<path id="Cover" d="M905 588H551V619.32H905V588Z" fill="#ED588A"/>
</g>
<path id="bottom-ribbon-right" d="M749.083 698C745.25 707.808 733 732 751 758" stroke="white" stroke-width="10"/>
<path id="bottom-ribbon-left" d="M709.433 698C713.732 707.738 730.5 736.5 708 757" stroke="white" stroke-width="10"/>
<path id="top-ribbon-right" d="M730.5 681C753.5 666.5 801 652 803 682C801 711 767 703.5 730.5 681Z" stroke="white" stroke-width="10"/>
<path id="top-ribbon-left" d="M729.5 681C710 668.5 658 650.5 656 680.5C658 709.5 692 704.446 729.5 681Z" stroke="white" stroke-width="10"/>
<g id="frosting-1" clip-path="url(#clip2_16_2)">
<path id="Frosting 1" d="M528.67 414C528.67 414 518.855 489.764 619.04 534.552C619.04 534.552 594.493 561.63 556.402 538.893C504.485 507.978 496.544 467.41 496.02 448.328C495.678 440.917 497.666 433.586 501.704 427.368C506.238 420.744 514.34 414 528.67 414Z" fill="#ED588A"/>
</g>
<g id="frosting-2" clip-path="url(#clip3_16_2)">
<path id="Frosting 2" d="M621.531 328.98C621.531 328.98 610.268 444.206 763 533.798C763 533.798 735.437 573.566 674.799 532.096C580.888 467.881 573.36 391.136 575.217 369.619C575.217 369.619 574.229 328.98 621.531 328.98Z" fill="#ED588A"/>
</g>
<g id="frosting-3">
<path id="Frosting 3" d="M736.071 225C736.071 225 687.466 396.561 943 523.914C943 523.914 902.681 581.973 813.994 521.437C676.623 427.671 665.661 315.675 668.337 284.287C668.337 284.287 666.89 225 736.071 225Z" fill="#ED588A"/>
</g>
<g id="frosting-4" clip-path="url(#clip4_16_2)">
<path id="Frosting 4" d="M796.875 253C796.875 253 820.667 315.624 909.993 366.688C919.919 372.249 928.449 379.995 934.937 389.34C945.367 404.669 952.106 427.36 924.271 447.922C924.271 447.98 776.795 367.957 796.875 253Z" fill="#ED588A"/>
</g>
<path id="box-word" d="M794.24 887C798.985 887 802.365 886.025 805.485 882.97C808.215 880.37 809.515 877.185 809.515 873.35C809.515 867.695 806.785 863.925 801.325 861.325C804.51 858.855 806.2 856.06 806.2 852.355C806.2 848.325 804.12 844.685 800.61 842.605C797.685 840.85 793.72 840.33 788.845 840.33H780.33V887H794.24ZM791.51 848.78C795.475 848.78 797.49 850.535 797.49 853.525C797.49 856.775 795.345 858.595 791.185 858.595H789.235V848.78H791.51ZM791.445 866.525C797.685 866.525 800.805 868.93 800.805 873.025C800.805 876.99 797.815 878.55 792.225 878.55H789.235V866.525H791.445ZM833.31 851.575C823.885 851.575 815.435 859.31 815.435 869.775C815.435 879.915 823.365 887.91 833.375 887.91C843.905 887.91 851.64 879.72 851.64 869.71C851.64 859.505 843.385 851.575 833.31 851.575ZM833.44 859.765C839.095 859.765 842.93 863.925 842.93 869.775C842.93 875.82 838.77 879.72 833.44 879.72C827.85 879.72 824.145 875.56 824.145 869.71C824.145 863.99 828.045 859.765 833.44 859.765ZM867.412 868.8L854.347 887H864.292L872.417 875.69L880.672 887H890.682L877.422 868.8L889.252 852.485H879.242L872.417 861.91L865.657 852.485H855.582L867.412 868.8Z" fill="#ED588A"/>
<path id="sweet-word" d="M569.3 880.03C572.745 886.855 577.49 890.17 584.315 890.17C592.765 890.17 598.615 884.71 598.615 876.91C598.615 868.395 591.66 864.755 582.95 857.085C581.585 855.915 580.22 854.745 580.22 852.925C580.22 851.04 581.845 849.675 584.185 849.675C586.72 849.675 588.995 851.365 591.205 854.485L597.835 848.635C594.13 844.345 590.23 841.16 584.315 841.16C577.295 841.16 571.51 846.295 571.51 852.925C571.51 859.555 577.23 863.975 586.915 872.1C588.8 873.66 589.905 875.61 589.905 877.3C589.905 879.705 587.5 881.655 584.51 881.655C581.39 881.655 578.92 879.575 576.775 875.545L569.3 880.03ZM614.77 889H620.165L627.77 869.305L635.115 889H640.64L653.185 854.485H644.67L637.715 873.855L630.37 854.485H625.17L617.695 874.115L610.805 854.485H602.29L614.77 889ZM683.202 878.86C680.797 881.2 678.327 882.24 674.622 882.24C669.682 882.24 665.782 879.38 664.937 874.245H692.757C692.757 873.465 692.822 873.075 692.822 872.295C692.822 861.375 685.412 853.575 674.492 853.575C663.377 853.575 656.552 862.285 656.552 871.71C656.552 881.85 663.637 889.91 674.622 889.91C681.902 889.91 686.777 887.57 690.482 882.305L683.202 878.86ZM665.327 867.42C667.017 863.065 670.332 860.92 674.622 860.92C679.237 860.92 682.942 863.39 684.112 867.42H665.327ZM724.779 878.86C722.374 881.2 719.904 882.24 716.199 882.24C711.259 882.24 707.359 879.38 706.514 874.245H734.334C734.334 873.465 734.399 873.075 734.399 872.295C734.399 861.375 726.989 853.575 716.069 853.575C704.954 853.575 698.129 862.285 698.129 871.71C698.129 881.85 705.214 889.91 716.199 889.91C723.479 889.91 728.354 887.57 732.059 882.305L724.779 878.86ZM706.904 867.42C708.594 863.065 711.909 860.92 716.199 860.92C720.814 860.92 724.519 863.39 725.689 867.42H706.904ZM742.306 854.485H737.886V861.895H742.306V889H750.951V861.895H756.086V854.485H750.951V841.745H742.306V854.485Z" fill="#ED588A"/>
<path id="motion-path" d="M687.601 452.51C739.267 404.01 880.101 316.31 1030.1 353.51C1217.6 400.009 1314 269 1267.1 175.01L1256 159C1184 61.5002 699.602 -82.4901 366.602 142.01C100.202 321.61 74.9352 489.843 95.6019 551.51C101.602 594.676 138.903 635.309 240.103 452.51C341.302 269.71 400.936 282.01 418.103 311.01C437.269 387.51 498.003 542.71 587.603 551.51C561.068 525.84 511.9 462.6 527.5 415C543.1 367.4 561.667 342.166 569 335.5C584.167 403.84 638.1 542.718 732.5 551.51C685.333 506.007 597 398 621 330C624.466 314.666 637.019 276.2 659.5 245C676.5 338 748.1 528.5 898.5 546.5C823.333 483.5 684.9 331.2 732.5 226C739 213.333 757.7 188 780.5 188C778.333 252.5 804.6 394.2 927 445C881.333 396.996 791.7 291.292 798.5 252.5C791.167 226.67 803.2 175.01 910 175.01C1043.5 175.01 1496.33 365.558 1267.1 720.5C1074 1019.5 324 720.5 254.5 1030.5" stroke="black"/>
<path id="thin-frosting-1" d="M1262.04 709C1265.1 720.171 1264.01 728.139 1262.6 733.176C1258.56 747.542 1247.94 752.19 1244.84 768.616C1244.02 773.118 1243.8 777.718 1244.19 782.282C1244.61 786.651 1245.64 790.934 1247.24 795" stroke="#ED588A" stroke-width="5" stroke-miterlimit="10" stroke-linecap="round"/>
<path id="thin-frosting-2" d="M1186.94 712C1190.15 723.171 1189.01 731.139 1187.53 736.176C1183.29 750.542 1172.14 755.19 1168.88 771.616C1168.02 776.118 1167.79 780.718 1168.2 785.282C1168.65 789.651 1169.73 793.934 1171.41 798" stroke="#ED588A" stroke-width="5" stroke-miterlimit="10" stroke-linecap="round"/>
<path id="thin-frosting-3" d="M1115.94 712C1119.15 723.171 1118.01 731.139 1116.53 736.176C1112.29 750.542 1101.14 755.19 1097.88 771.616C1097.02 776.118 1096.79 780.718 1097.2 785.282C1097.65 789.651 1098.73 793.934 1100.41 798" stroke="#ED588A" stroke-width="5" stroke-miterlimit="10" stroke-linecap="round"/>
<path id="thin-frosting-4" d="M1044.04 712C1047.1 723.171 1046.01 731.139 1044.6 736.176C1040.56 750.542 1029.94 755.19 1026.84 771.616C1026.02 776.118 1025.8 780.718 1026.19 785.282C1026.61 789.651 1027.64 793.934 1029.24 798" stroke="#ED588A" stroke-width="5" stroke-miterlimit="10" stroke-linecap="round"/>
<path id="thin-frosting-1-copy" d="M845.037 704.148C831.791 704.265 823.394 700.57 818.319 697.399C803.849 688.338 802.164 674.646 785.13 666.04C780.454 663.708 775.476 662.048 770.339 661.107C765.406 660.263 760.373 660.143 755.394 660.751" stroke="#ED588A" stroke-width="5" stroke-miterlimit="10" stroke-linecap="round"/>
<path id="thin-frosting-2-copy" d="M775.285 756.761C767.313 754.144 763.024 750.224 760.622 747.292C753.778 738.92 755.544 730.363 747.07 721.744C744.737 719.397 742.087 717.391 739.195 715.784C736.407 714.277 733.411 713.185 730.301 712.539" stroke="#ED588A" stroke-width="5" stroke-miterlimit="10" stroke-linecap="round"/>
<path id="thin-frosting-3-copy" d="M726.902 709.951C723.039 717.37 718.541 721.04 715.312 723.001C706.095 728.588 698.15 725.778 688.421 732.919C685.767 734.888 683.388 737.209 681.354 739.816C679.433 742.335 677.876 745.109 676.73 748.051" stroke="#ED588A" stroke-width="5" stroke-miterlimit="10" stroke-linecap="round"/>
<path id="thin-frosting-4-copy" d="M712.63 658.778C705.083 669.664 697.22 674.39 691.701 676.705C675.952 683.295 663.796 676.771 646.939 685.717C642.336 688.191 638.108 691.299 634.375 694.951C630.839 698.493 627.837 702.535 625.461 706.952" stroke="#ED588A" stroke-width="5" stroke-miterlimit="10" stroke-linecap="round"/>
<path id="thin-frosting-motion-path-1" d="M1167 355.5L1204.5 780.5" stroke="#0047FF"/>
<path id="thin-frosting-motion-path-1-2" d="M1204.5 780.5C1112.33 747.833 902.8 682.7 802 683.5" stroke="#05FF00"/>
<path id="thin-frosting-motion-path-2" d="M1270.5 185C1314.67 170.333 1348.4 196.3 1350 285.5C1351.6 374.7 1350.67 721.333 1350 883.5" stroke="#0047FF"/>
<path id="thin-frosting-motion-path-2-2" d="M1350 883C1148.17 880 744.8 848.1 746 744.5" stroke="#05FF00"/>
<path id="thin-frosting-motion-path-3" d="M358 147.5C274.667 153.667 97.7999 196.2 103 311C108.2 425.8 117.5 717.5 121.5 849" stroke="#0047FF"/>
<path id="thin-frosting-motion-path-3-2" d="M121.5 849C281 856.5 622.8 846.2 714 745" stroke="#05FF00"/>
<path id="thin-frosting-motion-path-4" d="M267 217.5L239 784.5" stroke="#0047FF"/>
<path id="thin-frosting-motion-path-4-2" d="M239 784.5C331 750 544.2 681.3 655 682.5" stroke="#05FF00"/>
</g>
<defs>
<clipPath id="clip0_16_2">
<rect width="1440" height="1024" fill="white"/>
</clipPath>
<clipPath id="clip1_16_2">
<rect width="91.0579" height="257.611" fill="white" transform="translate(1090 408.272) rotate(-0.171385)"/>
</clipPath>
<clipPath id="clip2_16_2">
<rect width="123" height="134" fill="white" transform="translate(496 414)"/>
</clipPath>
<clipPath id="clip3_16_2">
<rect width="188" height="222" fill="white" transform="translate(575 329)"/>
</clipPath>
<clipPath id="clip4_16_2">
<rect width="149" height="195" fill="white" transform="translate(795 253)"/>
</clipPath>
</defs>
</svg>
